<svg xmlns="http://www.w3.org/2000/svg" width="917" height="917" viewBox="0 0 917 917">
  <defs>
    <style>
      .cls-1, .cls-3 {
        fill: #003078;
      }

      .cls-2 {
        fill: #fff;
      }

      .cls-2, .cls-3 {
        fill-rule: evenodd;
      }
    </style>
  </defs>
  <circle class="cls-1" cx="458" cy="461" r="457"/>
  <path class="cls-2" d="M201.01,235.888V375.837L313.378,689.155s11.358,33.718,47.861,33.421c0.112,0.123,314.214,0,314.214,0s14.611-2.788,16.647-20.888c0.318-1.08,22.89-91.907,22.89-91.907s-3.924-27.418-27.052-27.154c0.67-.02-312.133,0-312.133,0L355,530.407H569.328s23.645-3.533,22.889-29.243c-0.123-.068,1.481-29.537-24.97-31.331-0.274.536-233.06,0-233.06,0L294.65,361.216V237.977s-4.342-32.694-45.78-35.509C248.767,202.679,209.348,201.7,201.01,235.888Z"/>
  <path id="REACT_ARENA_copy" data-name="REACT ARENA copy" class="cls-3" d="M1009.13,602.8h60.54V469.59l86.5,133.209h73.98l-70.06-109.108c17.1-6.729,25.48-13.028,36.06-27.837q19.05-26.9,19.05-57.356v-7.847c0-33.319-10.81-50.044-29.14-68.379-18.2-17.979-45.31-30.64-78.84-30.64h-98.27Zm103.88-157.87h-20.18v-0.187h-23.35V361.6h34c14.6,0,29.51,4.321,37.37,11.957q11.955,12.518,11.95,28.958C1152.8,425.479,1135.07,444.929,1113.01,444.929Zm143.11-144.044V603.172h181.6V543.014H1316.65V482.3h90.8V421.949h-90.8V361.23h121.07V300.885h-181.6ZM1452.66,602.8h65.39l20.37-45.773h103.13l20.36,45.773h65.58L1589.98,295.467Zm109.67-99.206,27.84-63.708,27.46,63.708h-55.3Zm412.89,56.8-43.16-43.157q-26.895,26.9-65.01,26.9-37.935,0-64.65-26.717-26.895-26.9-26.9-64.829,0-37.553,26.9-64.829,26.535-26.9,64.65-26.9,37.545,0,64.83,26.9l43.15-43.157c-24.88-24-61.85-44.652-108.36-44.652l0.19-.748q-62.775,0-107.8,45.026-44.835,45.212-44.84,108.173,0,63.148,44.84,107.987,44.655,44.277,107.8,44.465A152.11,152.11,0,0,0,1975.22,560.389Zm14.95-258.757V361.6h74.17V602.8h60.72V361.6h73.98V301.632H1990.17ZM2326.08,602.8h65.39l20.37-45.773h103.13l20.36,45.773h65.58L2463.4,295.467Zm109.67-99.206,27.84-63.708,27.46,63.708h-55.3Zm191.5,99.206h60.53V469.59l86.5,133.209h73.99l-70.06-109.108c17.1-6.729,25.48-13.028,36.05-27.837q19.065-26.9,19.06-57.356v-7.847c0-33.319-10.81-50.044-29.15-68.379-18.19-17.979-45.31-30.64-78.84-30.64h-98.27Zm103.88-157.87h-20.18v-0.187h-23.36V361.6h34.01c14.6,0,29.51,4.321,37.36,11.957q11.955,12.518,11.96,28.958C2770.92,425.479,2753.18,444.929,2731.13,444.929Zm143.11-144.044V603.172h181.59V543.014H2934.77V482.3h90.8V421.949h-90.8V361.23h121.06V300.885H2874.24Zm207.75-5.605V603.172h60.53V435.961l181.6,173V300.885H3263.4V468.1ZM3350.27,602.8h65.39l20.37-45.773h103.13l20.36,45.773h65.58L3487.59,295.467Zm109.67-99.206,27.84-63.708,27.46,63.708h-55.3Z"/>
</svg>
